<?xml version="1.0" encoding="UTF-8"?>
<svg xmlns="http://www.w3.org/2000/svg" xmlns:xlink="http://www.w3.org/1999/xlink" viewBox="0 0 696.3 633.33">
  <defs>
    <style>
      .cls-1 {
        fill: url(#linear-gradient-4);
      }

      .cls-2 {
        fill: url(#linear-gradient-3);
      }

      .cls-3 {
        fill: url(#linear-gradient);
      }

      .cls-4 {
        isolation: isolate;
      }

      .cls-5 {
        fill: url(#linear-gradient-2);
        mix-blend-mode: multiply;
        opacity: .2;
      }
    </style>
    <linearGradient id="linear-gradient" x1="12205.69" y1="1022.97" x2="12605.23" y2="1022.97" gradientTransform="translate(-674.78 12604.99) rotate(-90)" gradientUnits="userSpaceOnUse">
      <stop offset="0" stop-color="#ccc"/>
      <stop offset=".8" stop-color="#fff"/>
    </linearGradient>
    <linearGradient id="linear-gradient-2" x1="12205.69" y1="1022.97" x2="12605.23" y2="1022.97" gradientTransform="translate(-674.78 12604.99) rotate(-90)" gradientUnits="userSpaceOnUse">
      <stop offset=".3" stop-color="#211f2e"/>
      <stop offset=".9" stop-color="#211f2e" stop-opacity="0"/>
    </linearGradient>
    <linearGradient id="linear-gradient-3" x1="11979.33" y1="806.29" x2="12338.09" y2="806.29" xlink:href="#linear-gradient"/>
    <linearGradient id="linear-gradient-4" x1="11971.89" y1="1239.74" x2="12330.65" y2="1239.74" xlink:href="#linear-gradient"/>
  </defs>
  <g class="cls-4">
    <g id="Layer_2" data-name="Layer 2">
      <g id="objects">
        <g>
          <path class="cls-3" d="M683.45,399.53v-.03c0-132.37-88.72-214.17-335.33-214.17-198.39,0-335.35,77.65-335.35,214.17v-57.74c-7.25-23.84-11.1-48.85-11.1-74.63C1.67,103.65,156.76,0,348.12,0c191.33,0,346.42,103.65,346.43,267.13,0,25.78-3.84,50.79-11.1,74.63v.02s0,57.75,0,57.75Z"/>
          <path class="cls-5" d="M683.45,399.53v-.03c0-132.37-88.72-214.17-335.33-214.17-198.39,0-335.35,77.65-335.35,214.17v-57.74c-7.25-23.84-11.1-48.85-11.1-74.63C1.67,103.65,156.76,0,348.12,0c191.33,0,346.42,103.65,346.43,267.13,0,25.78-3.84,50.79-11.1,74.63v.02s0,57.75,0,57.75Z"/>
          <path class="cls-2" d="M0,295.6c0,62.7-.8,208.35,89.99,288.08,53.18,46.7,118.72,52.32,152.13,28.27,39.68-28.56,20.28-103.21-39.98-156.8-70.65-62.83-125.24-64.9-178.25-125.65-16.75-19.2-22.44-40.99-22.21-62.36C.86,275.73.28,285.13,0,295.6Z"/>
          <path class="cls-1" d="M494.17,462.59c-60.26,53.59-79.66,128.25-39.98,156.8,33.41,24.05,98.96,18.43,152.13-28.27,90.78-79.73,89.98-225.38,89.98-288.08-.28-10.47-.86-19.87-1.67-28.47.23,21.37-5.46,43.17-22.21,62.36-53.01,60.75-107.6,62.83-178.25,125.65Z"/>
        </g>
      </g>
    </g>
  </g>
</svg>